<?xml version="1.0" encoding="utf-8"?>
<!-- Generator: Adobe Illustrator 25.0.0, SVG Export Plug-In . SVG Version: 6.00 Build 0)  -->
<svg version="1.1" id="形状_1_1_" xmlns="http://www.w3.org/2000/svg" xmlns:xlink="http://www.w3.org/1999/xlink" x="0px"
	 y="0px" viewBox="0 0 503.9 181.4" style="enable-background:new 0 0 503.9 181.4;" xml:space="preserve">
<style type="text/css">
	.st0{fill-rule:evenodd;clip-rule:evenodd;fill:#FFFFFF;}
</style>
<g id="形状_1">
	<g>
		<path class="st0" d="M500.3,0.3c-1.6,0.4-373.7,101.2-373.7,101.2c-7.2,2-14.5,3-21.7,3.1C76.4,104.8,50.9,89,51.2,55.6
			c0.1-13.1,4-28.8,13.4-47.3C31.8,46.8,0.3,94.5,0,130.1c-0.1,13.5,4.2,25.2,14.5,34c14.9,12.7,31.1,17.2,47.4,17.2
			c23.7,0,47.2-9.6,65.8-16.9C158.8,152,502,3.1,502,3.1C505.1,1.3,504.5-0.8,500.3,0.3z"/>
	</g>
</g>
</svg>
